<?xml version="1.0" encoding="UTF-8"?>
<svg xmlns="http://www.w3.org/2000/svg" id="Layer_1" viewBox="0 0 377.65 78.89">
  <defs>
    <style>.cls-1{fill:#fff;}.cls-2{fill:#1b75bb;}</style>
  </defs>
  <path class="cls-1" d="m172.55,57.52v11.61h-58.05V11.09h11.61v46.44h46.44Z"></path>
  <path class="cls-1" d="m197.47,57.52l-5.03,11.61h-12.65l25.19-58.05h12.61l25.19,58.05h-12.62l-5.03-11.61h-27.67Zm22.6-11.61l-8.79-20.24-8.78,20.24h17.57Z"></path>
  <path class="cls-1" d="m288.64,11.09c12.9,0,19.35,5.8,19.35,17.41,0,6.45-1.93,10.32-5.8,11.61,3.87,1.29,5.8,5.16,5.8,11.61,0,11.61-6.45,17.41-19.35,17.41h-38.7V11.09h38.7Zm0,23.22c5.16,0,7.74-1.93,7.74-5.8s-3.22-5.8-9.67-5.8h-25.15v11.61h27.09Zm0,11.61h-27.09v11.61h25.15c6.45,0,9.67-1.93,9.67-5.8s-2.58-5.8-7.74-5.8Z"></path>
  <path class="cls-1" d="m338.95,45.91c-12.9,0-19.35-5.8-19.35-17.41s6.45-17.41,19.35-17.41h38.7v11.61h-36.76c-6.45,0-9.67,1.93-9.67,5.8s3.22,5.8,9.67,5.8h17.41c12.9,0,19.35,5.8,19.35,17.41s-6.45,17.41-19.35,17.41h-38.7v-11.61h36.76c6.45,0,9.67-1.93,9.67-5.8s-3.22-5.8-9.67-5.8h-17.41Z"></path>
  <polygon class="cls-2" points="97.98 0 97.98 11.18 71.06 11.18 41.27 78.89 28.65 78.89 11.46 39.63 0 39.63 0 28.44 19.21 28.44 34.96 64.43 63.19 .04 63.19 0 97.98 0"></polygon>
</svg>
