<?xml version="1.0" encoding="UTF-8"?>
<svg xmlns="http://www.w3.org/2000/svg" width="48" height="48" viewBox="0 0 48 48" fill="none">
  <rect width="48" height="48" fill="#0E75BC" fill-opacity="0.2"></rect>
  <path d="M18.5 13.5C18.9219 13.5 19.2969 13.6875 19.5781 14.0156L23.7031 18.5156C24.2656 19.125 24.2188 20.0625 23.6094 20.625C23 21.1875 22.0625 21.1406 21.5 20.5312L20 18.8906V33C20 33.8438 19.2969 34.5 18.5 34.5C17.6562 34.5 17 33.8438 17 33V18.8906L15.4531 20.5312C14.8906 21.1406 13.9531 21.1875 13.3438 20.625C12.7344 20.0625 12.6875 19.125 13.25 18.5156L17.375 14.0156C17.6562 13.6875 18.0781 13.5 18.5 13.5ZM27.5 15C27.5 14.2031 28.1562 13.5 29 13.5H31.25C32.0469 13.5 32.75 14.2031 32.75 15V19.5H33.5C34.2969 19.5 35 20.2031 35 21C35 21.8438 34.2969 22.5 33.5 22.5H31.25H29C28.1562 22.5 27.5 21.8438 27.5 21C27.5 20.2031 28.1562 19.5 29 19.5H29.75V16.5H29C28.1562 16.5 27.5 15.8438 27.5 15ZM31.8594 29.1094C32.375 28.875 32.75 28.3594 32.75 27.75C32.75 26.9531 32.0469 26.25 31.25 26.25C30.4062 26.25 29.75 26.9531 29.75 27.75C29.75 28.5938 30.4062 29.25 31.25 29.25C31.4375 29.25 31.6719 29.2031 31.8594 29.1094ZM29.9844 31.6875C28.2969 31.1719 27.125 29.625 27.125 27.75C27.125 25.5 28.9531 23.625 31.25 23.625C33.5 23.625 35.375 25.5 35.375 27.75C35.375 28.875 35 29.9531 34.3438 30.8438L32.0469 33.8906C31.5781 34.5938 30.6406 34.7344 29.9375 34.2188C29.2812 33.75 29.1406 32.8125 29.6562 32.1094L29.9844 31.6875Z" fill="#0E75BC"></path>
</svg>
