<?xml version="1.0" encoding="UTF-8"?>
<svg xmlns="http://www.w3.org/2000/svg" width="24" height="22" viewBox="0 0 24 22" fill="none">
  <path d="M6.5 0.5C6.92188 0.5 7.29688 0.6875 7.57812 1.01562L11.7031 5.51562C12.2656 6.125 12.2188 7.0625 11.6094 7.625C11 8.1875 10.0625 8.14062 9.5 7.53125L8 5.89062V20C8 20.8438 7.29688 21.5 6.5 21.5C5.65625 21.5 5 20.8438 5 20V5.89062L3.45312 7.53125C2.89062 8.14062 1.95312 8.1875 1.34375 7.625C0.734375 7.0625 0.6875 6.125 1.25 5.51562L5.375 1.01562C5.65625 0.6875 6.07812 0.5 6.5 0.5ZM15.5 2C15.5 1.20312 16.1562 0.5 17 0.5H19.25C20.0469 0.5 20.75 1.20312 20.75 2V6.5H21.5C22.2969 6.5 23 7.20312 23 8C23 8.84375 22.2969 9.5 21.5 9.5H19.25H17C16.1562 9.5 15.5 8.84375 15.5 8C15.5 7.20312 16.1562 6.5 17 6.5H17.75V3.5H17C16.1562 3.5 15.5 2.84375 15.5 2ZM19.8594 16.1094C20.375 15.875 20.75 15.3594 20.75 14.75C20.75 13.9531 20.0469 13.25 19.25 13.25C18.4062 13.25 17.75 13.9531 17.75 14.75C17.75 15.5938 18.4062 16.25 19.25 16.25C19.4375 16.25 19.6719 16.2031 19.8594 16.1094ZM17.9844 18.6875C16.2969 18.1719 15.125 16.625 15.125 14.75C15.125 12.5 16.9531 10.625 19.25 10.625C21.5 10.625 23.375 12.5 23.375 14.75C23.375 15.875 23 16.9531 22.3438 17.8438L20.0469 20.8906C19.5781 21.5938 18.6406 21.7344 17.9375 21.2188C17.2812 20.75 17.1406 19.8125 17.6562 19.1094L17.9844 18.6875Z" fill="#0E75BC"></path>
</svg>
