<?xml version="1.0" encoding="UTF-8"?>
<svg xmlns="http://www.w3.org/2000/svg" width="48" height="48" viewBox="0 0 48 48" fill="none">
  <rect width="48" height="48" fill="#0E75BC" fill-opacity="0.2"></rect>
  <path d="M13.625 23.25C14 24.3281 14.6094 25.2656 15.4531 26.0625L16.2031 26.7188V34.9219C16.2031 35.5312 15.7344 36 15.125 36C14.4688 36 13.9531 35.5312 13.9531 34.875V27.7031C12.6875 26.5312 11.75 25.0312 11.2812 23.25H13.625ZM34.7656 24.75C34.8125 24.7969 34.8125 24.8906 34.6719 24.8906C35.1406 25.9219 34.3906 27 33.3125 27H31.8594V30.0469C31.8594 31.6875 30.5469 33 28.9062 33H27.4531L27.5 34.875C27.5 35.5312 27.0312 36 26.375 36C25.7656 36 25.25 35.5312 25.25 34.875V30.75H29C29.375 30.75 29.75 30.4219 29.75 30V24.75H34.7656ZM33.4531 14.25C34.2969 14.25 34.9531 14.9531 34.9062 15.75V21.75C34.9062 22.5938 34.2031 23.25 33.4062 23.25H24.4531C23.1406 23.25 21.9688 22.6875 21.0312 21.75H12.4531C11.6562 21.75 11 21.0938 11 20.25V17.25C11 16.4531 11.6562 15.75 12.4531 15.75H12.7812C14.5156 13.5 17.2812 12 20.3281 12H23.4219C25.7188 12 27.875 12.8438 29.6094 14.25H33.4531ZM20.0469 19.5C20 19.2656 19.9531 19.0312 19.9531 18.75C19.9531 18.5156 20 18.2812 20.0469 18H13.2031V19.5H20.0469ZM21.0781 15.75C21.125 15.75 21.125 15.7969 21.125 15.7969C21.875 14.9531 22.9062 14.3906 24.0781 14.2969C23.8906 14.2969 23.6562 14.25 23.4688 14.25H20.2812C18.6875 14.25 17.0938 14.8125 15.875 15.75H21.0781ZM28.9531 21L28.9062 16.5H24.4531C23.2344 16.5 22.25 17.5312 22.25 18.75C22.25 20.0156 23.1875 21 24.4531 21H28.9531ZM32.7031 21V16.5H31.25V21H32.7031Z" fill="#0E75BC"></path>
</svg>
