<?xml version="1.0" encoding="UTF-8"?>
<svg xmlns="http://www.w3.org/2000/svg" width="25" height="24" viewBox="0 0 25 24" fill="none">
  <path d="M2.625 11.25C3 12.3281 3.60938 13.2656 4.45312 14.0625L5.20312 14.7188V22.9219C5.20312 23.5312 4.73438 24 4.125 24C3.46875 24 2.95312 23.5312 2.95312 22.875V15.7031C1.6875 14.5312 0.75 13.0312 0.28125 11.25H2.625ZM23.7656 12.75C23.8125 12.7969 23.8125 12.8906 23.6719 12.8906C24.1406 13.9219 23.3906 15 22.3125 15H20.8594V18.0469C20.8594 19.6875 19.5469 21 17.9062 21H16.4531L16.5 22.875C16.5 23.5312 16.0312 24 15.375 24C14.7656 24 14.25 23.5312 14.25 22.875V18.75H18C18.375 18.75 18.75 18.4219 18.75 18V12.75H23.7656ZM22.4531 2.25C23.2969 2.25 23.9531 2.95312 23.9062 3.75V9.75C23.9062 10.5938 23.2031 11.25 22.4062 11.25H13.4531C12.1406 11.25 10.9688 10.6875 10.0312 9.75H1.45312C0.65625 9.75 0 9.09375 0 8.25V5.25C0 4.45312 0.65625 3.75 1.45312 3.75H1.78125C3.51562 1.5 6.28125 0 9.32812 0H12.4219C14.7188 0 16.875 0.84375 18.6094 2.25H22.4531ZM9.04688 7.5C9 7.26562 8.95312 7.03125 8.95312 6.75C8.95312 6.51562 9 6.28125 9.04688 6H2.20312V7.5H9.04688ZM10.0781 3.75C10.125 3.75 10.125 3.79688 10.125 3.79688C10.875 2.95312 11.9062 2.39062 13.0781 2.29688C12.8906 2.29688 12.6562 2.25 12.4688 2.25H9.28125C7.6875 2.25 6.09375 2.8125 4.875 3.75H10.0781ZM17.9531 9L17.9062 4.5H13.4531C12.2344 4.5 11.25 5.53125 11.25 6.75C11.25 8.01562 12.1875 9 13.4531 9H17.9531ZM21.7031 9V4.5H20.25V9H21.7031Z" fill="#0E75BC"></path>
</svg>
