<?xml version="1.0" encoding="UTF-8"?>
<svg xmlns="http://www.w3.org/2000/svg" width="48" height="48" viewBox="0 0 48 48" fill="none">
  <rect width="48" height="48" fill="#0E75BC" fill-opacity="0.2"></rect>
  <path d="M24 12C24.7969 12 25.5 12.7031 25.5 13.5V15.1406C29.25 15.7969 32.2031 18.75 32.8594 22.5H34.5C35.2969 22.5 36 23.2031 36 24C36 24.8438 35.2969 25.5 34.5 25.5H32.8594C32.2031 29.2969 29.25 32.25 25.5 32.9062V34.5C25.5 35.3438 24.7969 36 24 36C23.1562 36 22.5 35.3438 22.5 34.5V32.9062C18.7031 32.25 15.75 29.2969 15.0938 25.5H13.5C12.6562 25.5 12 24.8438 12 24C12 23.2031 12.6562 22.5 13.5 22.5H15.0938C15.75 18.75 18.7031 15.7969 22.5 15.1406V13.5C22.5 12.7031 23.1562 12 24 12ZM18 24C18 27.3281 20.6719 30 24 30C27.2812 30 30 27.3281 30 24C30 20.7188 27.2812 18 24 18C20.6719 18 18 20.7188 18 24ZM24 27.75C21.8906 27.75 20.25 26.1094 20.25 24C20.25 21.9375 21.8906 20.25 24 20.25C26.0625 20.25 27.75 21.9375 27.75 24C27.75 26.1094 26.0625 27.75 24 27.75Z" fill="#0E75BC"></path>
</svg>
