<?xml version="1.0" encoding="UTF-8"?>
<svg xmlns="http://www.w3.org/2000/svg" width="24" height="24" viewBox="0 0 24 24" fill="none">
  <path d="M12 0C12.7969 0 13.5 0.703125 13.5 1.5V3.14062C17.25 3.79688 20.2031 6.75 20.8594 10.5H22.5C23.2969 10.5 24 11.2031 24 12C24 12.8438 23.2969 13.5 22.5 13.5H20.8594C20.2031 17.2969 17.25 20.25 13.5 20.9062V22.5C13.5 23.3438 12.7969 24 12 24C11.1562 24 10.5 23.3438 10.5 22.5V20.9062C6.70312 20.25 3.75 17.2969 3.09375 13.5H1.5C0.65625 13.5 0 12.8438 0 12C0 11.2031 0.65625 10.5 1.5 10.5H3.09375C3.75 6.75 6.70312 3.79688 10.5 3.14062V1.5C10.5 0.703125 11.1562 0 12 0ZM6 12C6 15.3281 8.67188 18 12 18C15.2812 18 18 15.3281 18 12C18 8.71875 15.2812 6 12 6C8.67188 6 6 8.71875 6 12ZM12 15.75C9.89062 15.75 8.25 14.1094 8.25 12C8.25 9.9375 9.89062 8.25 12 8.25C14.0625 8.25 15.75 9.9375 15.75 12C15.75 14.1094 14.0625 15.75 12 15.75Z" fill="#0E75BC"></path>
</svg>
