<?xml version="1.0" encoding="UTF-8"?>
<svg xmlns="http://www.w3.org/2000/svg" width="244" height="50" viewBox="0 0 244 50" fill="none">
  <g id="a" clip-path="url(#clip0_1_27)">
    <path id="Vector" d="M0.0128172 0C13.9003 0 27.7813 0 41.6688 0C41.6368 0.128172 41.6304 0.269162 41.5791 0.390925C41.1113 1.46757 40.637 2.54422 40.1628 3.62087C39.6885 4.71033 39.2143 5.79979 38.7401 6.88285C38.0864 8.38247 37.4327 9.87567 36.779 11.3753C36.0997 12.9198 35.414 14.4578 34.7347 16.0023C33.9208 17.848 33.1133 19.7001 32.3058 21.5458C31.4599 23.4748 30.6139 25.4037 29.7616 27.3327C28.9157 29.2489 28.0697 31.1651 27.2302 33.0813C26.6662 34.3694 26.0959 35.6511 25.5319 36.9392C25 38.1569 24.4745 39.3745 23.9426 40.5922C23.9041 40.6755 23.8529 40.7524 23.7952 40.8549C20.4371 33.1966 17.0982 25.5832 13.7657 17.9762H1.4099V25.141H8.74135C8.83107 25.3461 8.89516 25.5127 8.97206 25.6729C10.696 29.6014 12.4263 33.5299 14.1502 37.4583C15.7139 41.0215 17.284 44.5911 18.8413 48.1607C19.1105 48.7695 19.3604 49.3784 19.6168 49.9936C19.527 49.9936 19.4373 50.0064 19.3476 50.0064C13.0095 50.0064 6.67137 50.0064 0.333248 50.0064C0.237119 50.0064 0.134581 50 0 49.9936C0 49.8206 0 49.6668 0 49.5194C0 33.1453 0 16.7842 0 0.422969C0 0.281979 0.00640861 0.140989 0.0128172 0Z" fill="#0E75BC"></path>
    <path id="Vector_2" d="M65.951 0C65.951 4.40272 65.9638 8.81184 65.9638 13.2146C65.9638 25.0385 65.9638 36.8623 65.9638 48.6862C65.9638 49.122 65.9638 49.5514 65.9574 49.9872C65.7908 49.9872 65.6242 50 65.4576 50C53.1082 50 40.7523 50 28.4029 50C28.262 50 28.121 49.9936 27.98 49.9872C28.0184 49.8782 28.0505 49.7693 28.0953 49.6668C28.2812 49.2566 28.4734 48.8593 28.6529 48.4491C30.5883 44.0528 32.5237 39.6565 34.4655 35.2666C36.4714 30.7229 38.4837 26.1792 40.4832 21.6291C42.4186 17.2328 44.354 12.8365 46.2958 8.44655C46.5137 7.9595 46.7252 7.47244 46.9303 6.99821C46.9687 6.98539 46.9751 6.97898 46.9879 6.97898C52.5955 6.97898 58.2094 6.97257 63.8169 6.96616C63.8682 6.96616 63.9195 6.96616 63.9708 6.96616C64.0092 6.96616 64.0477 6.95975 64.0861 6.95335C64.0989 6.95335 64.1053 6.94053 64.1182 6.93412C64.131 6.92771 64.1374 6.91489 64.163 6.88926C64.163 6.7675 64.163 6.63292 64.163 6.49193C64.163 4.33222 64.1758 2.17252 64.1758 0.0128172C64.7654 0.0128172 65.355 0.0128172 65.9446 0.0128172L65.951 0Z" fill="#0E75BC"></path>
    <path id="Vector_3" d="M161.471 44.0079V6.84439C161.612 6.83798 161.747 6.82516 161.882 6.82516C163.753 6.82516 165.624 6.82516 167.489 6.82516C173.712 6.82516 179.935 6.81235 186.164 6.83798C187.984 6.84439 189.798 6.99179 191.553 7.51089C193.021 7.94026 194.373 8.58112 195.527 9.60009C196.834 10.7536 197.661 12.1956 198.142 13.849C198.302 14.4001 198.372 14.9705 198.475 15.5281C198.661 16.5406 198.693 17.5532 198.667 18.5722C198.648 19.3604 198.552 20.1423 198.398 20.9241C198.244 21.7188 198.001 22.4686 197.622 23.1799C197.084 24.1861 196.289 24.9167 195.219 25.3396C195.187 25.3525 195.155 25.3781 195.065 25.4294C195.245 25.5127 195.392 25.5832 195.54 25.6473C196.315 26.0061 196.917 26.5701 197.392 27.2751C197.968 28.121 198.27 29.0823 198.449 30.0756C198.75 31.7354 198.776 33.4081 198.532 35.0743C198.424 35.8113 198.276 36.5547 198.052 37.2661C197.103 40.2845 195.033 42.1943 192.06 43.1748C190.938 43.5465 189.785 43.7516 188.612 43.8734C187.465 43.9887 186.311 44.0143 185.158 44.0143C177.499 44.0143 169.841 44.0143 162.183 44.0143C161.952 44.0143 161.728 44.0143 161.471 44.0143V44.0079ZM168.95 36.5099C169.111 36.5099 169.251 36.5099 169.386 36.5099C174.558 36.5099 179.73 36.5099 184.901 36.5099C185.593 36.5099 186.286 36.4778 186.971 36.4201C188.042 36.324 189.048 36.0036 189.945 35.3948C190.631 34.9333 191.022 34.2925 191.163 33.4786C191.239 33.03 191.22 32.5942 191.163 32.1456C190.996 30.9728 190.368 30.1333 189.278 29.6847C188.452 29.3386 187.567 29.1656 186.67 29.1656C180.896 29.1528 175.122 29.1656 169.348 29.1656C169.226 29.1656 169.098 29.1656 168.957 29.1656V36.5227L168.95 36.5099ZM168.95 21.6675C169.277 21.6675 169.566 21.6675 169.86 21.6675C175.429 21.6675 180.998 21.6675 186.568 21.6675C187.606 21.6675 188.593 21.4945 189.528 21.0267C190.291 20.6421 190.823 20.059 191.041 19.2451C191.195 18.6619 191.297 18.0659 191.182 17.4378C191.028 16.5727 190.637 15.8869 189.906 15.3871C189.483 15.0987 189.022 14.8872 188.522 14.7654C188.138 14.6757 187.74 14.6565 187.362 14.5411C186.728 14.3489 186.081 14.3297 185.427 14.3232C180.05 14.3232 174.673 14.3232 169.296 14.3232C169.187 14.3232 169.072 14.3361 168.95 14.3425V21.6611V21.6675Z" fill="white"></path>
    <path id="Vector_4" d="M231.883 21.6996C233.19 21.7637 234.491 21.8854 235.754 22.2379C236.471 22.4366 237.189 22.6737 237.862 22.9813C240.432 24.1348 242.034 26.1215 242.79 28.8067C243.2 30.2679 243.341 31.7675 243.277 33.2799C243.245 33.9913 243.207 34.7091 243.098 35.414C242.97 36.2407 242.771 37.0482 242.451 37.8365C242.117 38.6568 241.72 39.4258 241.182 40.1243C240.24 41.3484 239.009 42.2071 237.599 42.816C236.574 43.2517 235.51 43.5337 234.408 43.7132C233.184 43.9054 231.953 44.008 230.716 44.0016C222.712 44.0016 214.708 44.0016 206.703 44.0016C206.511 44.0016 206.319 44.0016 206.101 44.0016V36.5163C206.242 36.5163 206.389 36.5035 206.537 36.5035C210.433 36.5035 214.323 36.5035 218.22 36.5035C222.219 36.5035 226.211 36.5035 230.21 36.5035C231.088 36.5035 231.966 36.4138 232.818 36.1895C233.395 36.0356 233.934 35.8049 234.433 35.4909C235.625 34.7539 235.978 33.4466 235.773 32.2225C235.606 31.2164 235.042 30.4794 234.145 29.9923C233.62 29.7103 233.075 29.5117 232.485 29.4348C231.844 29.3515 231.197 29.2425 230.556 29.1528C230.428 29.1336 230.3 29.1464 230.172 29.1464C226.532 29.1464 222.898 29.1528 219.258 29.1464C218.168 29.1464 217.079 29.1464 215.996 29.0438C214.906 28.9349 213.83 28.717 212.779 28.3709C211.709 28.0121 210.702 27.5314 209.792 26.8585C208.664 26.0318 207.825 24.968 207.216 23.7183C206.569 22.3981 206.274 20.9882 206.152 19.5335C206.114 19.0785 206.095 18.617 206.088 18.1556C206.075 17.2071 206.139 16.2715 206.287 15.3358C206.466 14.1695 206.806 13.0544 207.357 12.0162C208.389 10.0487 209.997 8.72854 212.042 7.91465C213.099 7.49168 214.201 7.19688 215.329 7.08153C216.611 6.95336 217.899 6.84441 219.187 6.838C227.012 6.81877 234.837 6.82518 242.662 6.82518C242.854 6.82518 243.04 6.82518 243.22 6.82518C243.303 7.1328 243.335 13.708 243.258 14.3233C243.143 14.3233 243.021 14.3361 242.899 14.3361C237.099 14.3361 231.293 14.3361 225.493 14.3361C223.43 14.3361 221.366 14.3297 219.309 14.3361C218.22 14.3361 217.137 14.445 216.098 14.8039C215.669 14.9513 215.24 15.15 214.862 15.3999C213.881 16.0536 213.503 17.0213 213.548 18.1748C213.561 18.4248 213.593 18.6811 213.65 18.9246C213.939 20.0654 214.791 20.6742 215.797 21.1036C216.252 21.2958 216.733 21.4625 217.22 21.533C217.886 21.6355 218.559 21.6547 219.232 21.6675C220.335 21.6868 221.437 21.6675 222.539 21.6675C225.167 21.6675 227.788 21.6675 230.415 21.6675C230.851 21.6675 231.287 21.6868 231.723 21.6996C231.774 21.6996 231.825 21.6996 231.876 21.6996H231.883Z" fill="white"></path>
    <path id="Vector_5" d="M156.953 44.0016C156.588 44.0016 156.332 44.0016 156.075 44.0016C153.794 44.0016 151.519 44.0016 149.237 44.0016C148.93 44.0016 148.763 43.9311 148.641 43.617C148.302 42.7519 147.911 41.9124 147.546 41.06C147.244 40.3679 146.943 39.6693 146.636 38.9772C146.347 38.3107 146.059 37.6506 145.77 36.9905C145.706 36.8431 145.617 36.7086 145.54 36.5612H127.897C127.813 36.7406 127.724 36.9329 127.64 37.1315C127.089 38.394 126.545 39.6629 125.993 40.9254C125.59 41.8611 125.179 42.7903 124.782 43.726C124.699 43.9183 124.603 44.0016 124.385 44.0016C121.809 43.9952 119.239 43.9952 116.662 43.9887C116.637 43.9887 116.618 43.9759 116.553 43.9503C116.592 43.8478 116.618 43.7452 116.662 43.6491C117.111 42.6109 117.56 41.5791 118.008 40.5409C118.348 39.7655 118.694 38.99 119.027 38.2082C119.328 37.4968 119.61 36.7791 119.918 36.0677C120.213 35.3948 120.533 34.7347 120.828 34.0618C121.123 33.3889 121.386 32.7032 121.68 32.0303C121.937 31.4407 122.225 30.8639 122.481 30.2679C122.815 29.4989 123.122 28.7234 123.456 27.9544C123.75 27.2815 124.071 26.6214 124.366 25.9485C124.667 25.2628 124.93 24.5642 125.231 23.8785C125.769 22.6545 126.327 21.4368 126.859 20.2128C127.166 19.5078 127.448 18.7837 127.756 18.0723C128.031 17.4315 128.333 16.8034 128.614 16.169C129.217 14.7911 129.826 13.4197 130.415 12.0418C130.793 11.1574 131.152 10.2666 131.53 9.38223C131.851 8.61961 132.184 7.86339 132.517 7.11358C132.562 7.01105 132.646 6.92773 132.722 6.8252C132.902 6.8252 133.081 6.8252 133.254 6.8252C135.625 6.8252 137.99 6.8252 140.361 6.8252C140.772 6.8252 140.765 6.8252 140.919 7.19049C141.707 9.01694 142.496 10.837 143.29 12.657C143.636 13.4517 143.989 14.24 144.328 15.0346C144.7 15.9126 145.053 16.797 145.431 17.6686C145.886 18.7068 146.36 19.7386 146.815 20.7767C147.206 21.674 147.571 22.5776 147.956 23.4748C148.206 24.058 148.488 24.6283 148.744 25.2115C149.289 26.4484 149.827 27.6852 150.359 28.9221C150.667 29.6463 150.961 30.3769 151.275 31.0946C151.557 31.7483 151.871 32.3892 152.16 33.0428C152.461 33.735 152.73 34.4399 153.031 35.1384C153.326 35.8178 153.647 36.4778 153.941 37.1572C154.243 37.8429 154.512 38.5414 154.806 39.2271C155.088 39.8808 155.402 40.5217 155.691 41.1754C155.992 41.8675 156.268 42.5724 156.562 43.271C156.659 43.5017 156.787 43.7132 156.941 44.0144L156.953 44.0016ZM136.721 16.2459C134.844 20.5653 132.998 24.8014 131.133 29.0823H142.303C140.445 24.8142 138.606 20.5781 136.721 16.2459Z" fill="white"></path>
    <path id="Vector_6" d="M111.92 36.4907V43.9311C111.593 44.0336 76.0894 44.0849 74.7757 43.9887C74.6988 43.726 74.6603 7.65191 74.7372 6.85083H82.1264C82.1264 6.85083 82.152 6.87006 82.1584 6.87646C82.1648 6.88287 82.1712 6.89569 82.1776 6.90851C82.184 6.93414 82.1904 6.95978 82.1969 6.98541C82.1969 6.99823 82.1969 7.01105 82.1969 7.02386C82.1969 7.0495 82.1969 7.07513 82.1969 7.10077C82.1969 7.13922 82.1969 7.17767 82.1969 7.21612C82.1969 16.9252 82.1969 26.6342 82.2033 36.3433C82.2033 36.3689 82.2033 36.3945 82.2097 36.4202C82.2097 36.433 82.2161 36.4458 82.2289 36.4971H111.907L111.92 36.4907Z" fill="white"></path>
  </g>
  <defs>
    <clipPath id="clip0_1_27">
      <rect width="243.303" height="50" fill="white"></rect>
    </clipPath>
  </defs>
</svg>
