<svg xmlns="http://www.w3.org/2000/svg" width="140" height="37.971" viewBox="0 0 140 37.971">
  <g id="Group_22" data-name="Group 22" transform="translate(-15.889 -16.175)">
    <path id="Path_4" data-name="Path 4" d="M29.444,20.782a1.869,1.869,0,0,1-.465.531,1.037,1.037,0,0,1-.627.178,1.54,1.54,0,0,1-.732-.214c-.26-.144-.557-.3-.886-.48a7.487,7.487,0,0,0-1.13-.48,4.534,4.534,0,0,0-1.447-.214,3.107,3.107,0,0,0-2.089.6,2.031,2.031,0,0,0-.687,1.616,1.492,1.492,0,0,0,.413,1.079,3.563,3.563,0,0,0,1.086.738,11.572,11.572,0,0,0,1.535.569q.864.258,1.764.576a15.785,15.785,0,0,1,1.764.745,5.912,5.912,0,0,1,1.537,1.092,5.108,5.108,0,0,1,1.085,1.617,5.751,5.751,0,0,1,.413,2.3,7.482,7.482,0,0,1-.516,2.791,6.544,6.544,0,0,1-1.5,2.267,6.934,6.934,0,0,1-2.421,1.52,9.05,9.05,0,0,1-3.271.554,10.5,10.5,0,0,1-2.045-.206,12.3,12.3,0,0,1-2.016-.582,11.721,11.721,0,0,1-1.83-.893,7.813,7.813,0,0,1-1.492-1.152l1.477-2.333a1.183,1.183,0,0,1,.458-.428,1.284,1.284,0,0,1,.634-.163,1.682,1.682,0,0,1,.893.281q.451.281,1.019.619a8.269,8.269,0,0,0,1.308.619,4.854,4.854,0,0,0,1.742.281,3.311,3.311,0,0,0,2.111-.6,2.278,2.278,0,0,0,.753-1.9,1.8,1.8,0,0,0-.413-1.225,3.2,3.2,0,0,0-1.085-.783,10.166,10.166,0,0,0-1.529-.546q-.855-.236-1.757-.524a12.683,12.683,0,0,1-1.757-.709,5.506,5.506,0,0,1-1.528-1.107A5.155,5.155,0,0,1,17.129,25.1a6.8,6.8,0,0,1-.413-2.532,5.99,5.99,0,0,1,.488-2.363,6.093,6.093,0,0,1,1.432-2.051,7.017,7.017,0,0,1,2.318-1.439,8.533,8.533,0,0,1,3.145-.54,11.8,11.8,0,0,1,1.926.156,10.128,10.128,0,0,1,1.781.458,9.8,9.8,0,0,1,1.571.723,7.3,7.3,0,0,1,1.308.953Z" transform="translate(0)" fill="#000000"/>
    <path id="Path_5" data-name="Path 5" d="M127.732,17.818v3.958h6.054V39.331h4.99V21.776h6.054V17.818Z" transform="translate(-95.75 -1.407)" fill="#000000"/>
    <g id="Group_19" data-name="Group 19" transform="translate(50.853 16.411)">
      <path id="Path_6" data-name="Path 6" d="M268.109,35.389a4.594,4.594,0,0,0,1.794-.332,3.613,3.613,0,0,0,1.336-.953,4.2,4.2,0,0,0,.833-1.513,6.574,6.574,0,0,0,.289-2.03V17.818h4.99V30.56a9.959,9.959,0,0,1-.642,3.633,8.153,8.153,0,0,1-1.839,2.849,8.3,8.3,0,0,1-2.907,1.86,11.552,11.552,0,0,1-7.722,0,8.266,8.266,0,0,1-2.909-1.86,8.071,8.071,0,0,1-1.831-2.849,10.055,10.055,0,0,1-.634-3.633V17.818h4.99V30.545a6.619,6.619,0,0,0,.287,2.03,4.32,4.32,0,0,0,.835,1.522,3.591,3.591,0,0,0,1.336.959,4.592,4.592,0,0,0,1.794.332" transform="translate(-258.867 -17.818)" fill="#000000"/>
      <path id="Path_7" data-name="Path 7" d="M417.094,35.389a4.587,4.587,0,0,0,1.794-.332,3.614,3.614,0,0,0,1.336-.953,4.232,4.232,0,0,0,.835-1.513,6.621,6.621,0,0,0,.287-2.03V17.818h4.992V30.56a9.959,9.959,0,0,1-.643,3.633,8.167,8.167,0,0,1-1.837,2.849,8.294,8.294,0,0,1-2.909,1.86,11.552,11.552,0,0,1-7.722,0,8.294,8.294,0,0,1-2.909-1.86,8.072,8.072,0,0,1-1.831-2.849,10.053,10.053,0,0,1-.634-3.633V17.818h4.99V30.545a6.571,6.571,0,0,0,.289,2.03,4.3,4.3,0,0,0,.833,1.522,3.606,3.606,0,0,0,1.336.959,4.593,4.593,0,0,0,1.794.332" transform="translate(-386.413 -17.818)" fill="#000000"/>
      <path id="Path_8" data-name="Path 8" d="M563.883,27.933h2.008a5.148,5.148,0,0,0,1.736-.259,3.151,3.151,0,0,0,1.173-.715,2.728,2.728,0,0,0,.664-1.071,4.107,4.107,0,0,0,.206-1.321,2.77,2.77,0,0,0-.923-2.214,4.286,4.286,0,0,0-2.857-.8h-2.008Zm0,3.44v7.959h-4.99V17.818h7a14.346,14.346,0,0,1,3.979.48,7.485,7.485,0,0,1,2.687,1.336,5.065,5.065,0,0,1,1.514,2.023,6.714,6.714,0,0,1,.471,2.539,6.828,6.828,0,0,1-.28,1.98,5.982,5.982,0,0,1-.835,1.719,6.43,6.43,0,0,1-1.357,1.409,7.172,7.172,0,0,1-1.854,1.019,4.707,4.707,0,0,1,.938.621,3.684,3.684,0,0,1,.76.9l4.577,7.486h-4.517a1.92,1.92,0,0,1-1.8-.946L566.6,32.14a1.511,1.511,0,0,0-.555-.591,1.849,1.849,0,0,0-.893-.177Z" transform="translate(-515.72 -17.818)" fill="#000000"/>
    </g>
    <path id="Path_9" data-name="Path 9" d="M695.356,17.818V39.331h12.962V35.345h-7.972V17.818Z" transform="translate(-581.694 -1.407)" fill="#000000"/>
    <g id="Group_20" data-name="Group 20" transform="translate(128.692 16.411)">
      <path id="Path_10" data-name="Path 10" d="M809.05,35.389a4.586,4.586,0,0,0,1.794-.332,3.613,3.613,0,0,0,1.336-.953,4.227,4.227,0,0,0,.835-1.513,6.616,6.616,0,0,0,.287-2.03V17.818h4.992V30.56a9.961,9.961,0,0,1-.643,3.633,8.173,8.173,0,0,1-1.837,2.849A8.3,8.3,0,0,1,812.9,38.9a11.552,11.552,0,0,1-7.722,0,8.3,8.3,0,0,1-2.909-1.86,8.074,8.074,0,0,1-1.831-2.849,10.053,10.053,0,0,1-.634-3.633V17.818h4.99V30.545a6.578,6.578,0,0,0,.289,2.03,4.3,4.3,0,0,0,.833,1.522,3.6,3.6,0,0,0,1.336.959,4.594,4.594,0,0,0,1.794.332" transform="translate(-799.808 -17.818)" fill="#000000"/>
    </g>
    <rect id="Rectangle_1" data-name="Rectangle 1" width="5.018" height="21.513" transform="translate(150.871 16.411)" fill="#000000"/>
    <g id="Group_21" data-name="Group 21" transform="translate(16.792 46.261)">
      <path id="Path_11" data-name="Path 11" d="M160.566,227.782h-1.207V232a2.617,2.617,0,0,1-.365.049c-.163.014-.317.021-.464.021a.961.961,0,0,1-.854-.361,2.2,2.2,0,0,1-.244-1.2v-2.735h-1.207v2.924a4.048,4.048,0,0,0,.109.974,1.947,1.947,0,0,0,.365.763,1.676,1.676,0,0,0,.678.5,2.714,2.714,0,0,0,1.053.179,7.411,7.411,0,0,0,1.228-.094q.559-.1.908-.186Zm-8.686-.051a4.821,4.821,0,0,0-.669.16l.151.979a3.3,3.3,0,0,1,.569-.141,4.669,4.669,0,0,1,.769-.06,1.408,1.408,0,0,1,.513.081.8.8,0,0,1,.329.224.816.816,0,0,1,.175.334,1.594,1.594,0,0,1,.049.4v.2a3.748,3.748,0,0,0-.887-.111,3.892,3.892,0,0,0-.825.085,2.035,2.035,0,0,0-.693.28,1.416,1.416,0,0,0-.474.5,1.521,1.521,0,0,0-.175.759,1.8,1.8,0,0,0,.154.789,1.379,1.379,0,0,0,.429.519,1.8,1.8,0,0,0,.664.289,3.812,3.812,0,0,0,.859.09,8.781,8.781,0,0,0,1.272-.084c.377-.057.657-.1.844-.145v-3.165a3.177,3.177,0,0,0-.1-.844,1.579,1.579,0,0,0-.35-.654,1.61,1.61,0,0,0-.654-.419,2.943,2.943,0,0,0-1.007-.15,5.338,5.338,0,0,0-.94.079m.31,4.258a.641.641,0,0,1-.269-.594.625.625,0,0,1,.1-.365.669.669,0,0,1,.265-.224,1.251,1.251,0,0,1,.37-.109,2.644,2.644,0,0,1,.4-.03,2.584,2.584,0,0,1,.419.03,2.077,2.077,0,0,1,.289.06v1.338a4.466,4.466,0,0,1-.848.06,1.4,1.4,0,0,1-.729-.165m-5.729-2.111a2.049,2.049,0,0,1,.109-.45,1.3,1.3,0,0,1,.224-.389,1.149,1.149,0,0,1,.355-.274,1.071,1.071,0,0,1,.489-.1,1.054,1.054,0,0,1,.464.094.951.951,0,0,1,.329.26,1.135,1.135,0,0,1,.2.389,1.592,1.592,0,0,1,.07.474Zm-1.1,1.622a2.337,2.337,0,0,0,.489.859,2.22,2.22,0,0,0,.838.569,3.212,3.212,0,0,0,1.2.2,4.709,4.709,0,0,0,.528-.03c.174-.021.335-.045.485-.075s.283-.064.4-.1a1.864,1.864,0,0,0,.274-.1l-.159-.989a3.42,3.42,0,0,1-.575.171,3.829,3.829,0,0,1-.8.079,1.691,1.691,0,0,1-1.143-.344,1.371,1.371,0,0,1-.444-.972h3.444c.006-.067.011-.142.015-.226s0-.157,0-.224a2.888,2.888,0,0,0-.6-2,2.149,2.149,0,0,0-1.682-.669,2.4,2.4,0,0,0-.9.175,2.254,2.254,0,0,0-.779.519,2.517,2.517,0,0,0-.543.863,3.282,3.282,0,0,0-.205,1.207,3.518,3.518,0,0,0,.16,1.083m-.578-3.65c-.06-.019-.139-.04-.239-.064s-.2-.043-.31-.06-.212-.03-.319-.04-.2-.015-.28-.015a5.448,5.448,0,0,0-1.163.115,6.74,6.74,0,0,0-.874.244V233h1.207v-4.183a2.777,2.777,0,0,1,.314-.069,2.41,2.41,0,0,1,.425-.04,2.992,2.992,0,0,1,.613.055,3.782,3.782,0,0,1,.415.1Zm-4.582-.069H139V232a2.555,2.555,0,0,1-.364.049c-.163.014-.319.021-.465.021a.958.958,0,0,1-.853-.361,2.206,2.206,0,0,1-.244-1.2v-2.735h-1.209v2.924a4.045,4.045,0,0,0,.111.974,1.965,1.965,0,0,0,.364.763,1.691,1.691,0,0,0,.679.5,2.709,2.709,0,0,0,1.053.179,7.39,7.39,0,0,0,1.227-.094c.373-.064.676-.126.908-.186Zm-5.557,1.5a2.547,2.547,0,0,0-.444-.863,1.917,1.917,0,0,0-.724-.555,2.4,2.4,0,0,0-.983-.194,2.365,2.365,0,0,0-.673.09,2.812,2.812,0,0,0-.515.2v-2.705l-1.207.2v7.387a7.126,7.126,0,0,0,.9.2,7.025,7.025,0,0,0,1.143.09,3.066,3.066,0,0,0,1.109-.19,2.264,2.264,0,0,0,.833-.549,2.465,2.465,0,0,0,.53-.863,3.288,3.288,0,0,0,.184-1.133,3.767,3.767,0,0,0-.154-1.113m-1.463,2.346a1.291,1.291,0,0,1-1.047.453,4.274,4.274,0,0,1-.5-.024c-.136-.018-.247-.036-.334-.055v-3a1.836,1.836,0,0,1,.988-.29,1.08,1.08,0,0,1,.964.449,2.143,2.143,0,0,1,.305,1.218,1.9,1.9,0,0,1-.38,1.254m-11.87.4a5.639,5.639,0,0,1-.645-.21l-.21,1.008a5.805,5.805,0,0,0,.59.184,4.341,4.341,0,0,0,1.109.115,2.759,2.759,0,0,0,1.582-.384,1.289,1.289,0,0,0,.554-1.133,1.783,1.783,0,0,0-.09-.6,1.2,1.2,0,0,0-.284-.445,2.019,2.019,0,0,0-.494-.348,6.71,6.71,0,0,0-.729-.314,4.316,4.316,0,0,1-.44-.175,1.67,1.67,0,0,1-.289-.169.494.494,0,0,1-.156-.185.549.549,0,0,1-.045-.229.408.408,0,0,1,.231-.384,1.241,1.241,0,0,1,.6-.126,3.122,3.122,0,0,1,.72.075,2.956,2.956,0,0,1,.509.166l.22-.979a4.1,4.1,0,0,0-.63-.165,4.393,4.393,0,0,0-.878-.085,2.27,2.27,0,0,0-1.438.415,1.362,1.362,0,0,0-.528,1.133,1.515,1.515,0,0,0,.114.624,1.316,1.316,0,0,0,.316.434,2.043,2.043,0,0,0,.474.314,6.219,6.219,0,0,0,.6.256,3.5,3.5,0,0,1,.774.368.513.513,0,0,1,.235.43.408.408,0,0,1-.22.395,1.591,1.591,0,0,1-.7.115,3.355,3.355,0,0,1-.853-.1m-4.5,0a5.547,5.547,0,0,1-.645-.21l-.209,1.008a5.79,5.79,0,0,0,.589.184,4.328,4.328,0,0,0,1.107.115,2.764,2.764,0,0,0,1.583-.384,1.289,1.289,0,0,0,.554-1.133,1.783,1.783,0,0,0-.09-.6,1.2,1.2,0,0,0-.284-.445,2.016,2.016,0,0,0-.494-.348,6.712,6.712,0,0,0-.729-.314,4.343,4.343,0,0,1-.44-.175,1.616,1.616,0,0,1-.289-.169.492.492,0,0,1-.156-.185.548.548,0,0,1-.045-.229.407.407,0,0,1,.23-.384,1.237,1.237,0,0,1,.6-.126,3.107,3.107,0,0,1,.718.075,2.93,2.93,0,0,1,.51.166l.218-.979a4.026,4.026,0,0,0-.628-.165,4.4,4.4,0,0,0-.878-.085,2.269,2.269,0,0,0-1.438.415,1.358,1.358,0,0,0-.528,1.133,1.515,1.515,0,0,0,.114.624,1.289,1.289,0,0,0,.314.434,2.073,2.073,0,0,0,.474.314,6.407,6.407,0,0,0,.6.256,3.527,3.527,0,0,1,.774.368.516.516,0,0,1,.235.43.408.408,0,0,1-.22.395,1.591,1.591,0,0,1-.7.115,3.347,3.347,0,0,1-.853-.1m-5.092-2.156a2.125,2.125,0,0,1,.109-.45,1.3,1.3,0,0,1,.224-.389,1.146,1.146,0,0,1,.355-.274,1.08,1.08,0,0,1,.489-.1,1.051,1.051,0,0,1,.464.094.957.957,0,0,1,.331.26,1.135,1.135,0,0,1,.2.389,1.6,1.6,0,0,1,.07.474Zm-1.1,1.622a2.334,2.334,0,0,0,.489.859,2.243,2.243,0,0,0,.838.569,3.211,3.211,0,0,0,1.2.2,4.754,4.754,0,0,0,.53-.03c.172-.021.334-.045.483-.075s.283-.064.4-.1a1.958,1.958,0,0,0,.275-.1l-.16-.989a3.412,3.412,0,0,1-.575.171,3.807,3.807,0,0,1-.8.079,1.694,1.694,0,0,1-1.143-.344,1.371,1.371,0,0,1-.444-.972h3.444c.006-.067.012-.142.015-.226s0-.157,0-.224a2.894,2.894,0,0,0-.6-2,2.151,2.151,0,0,0-1.682-.669,2.41,2.41,0,0,0-.9.175,2.236,2.236,0,0,0-.778.519,2.5,2.5,0,0,0-.545.863,3.282,3.282,0,0,0-.2,1.207,3.513,3.513,0,0,0,.16,1.083m-.578-3.65c-.06-.019-.139-.04-.239-.064s-.2-.043-.31-.06-.213-.03-.319-.04-.2-.015-.28-.015a5.449,5.449,0,0,0-1.163.115,6.82,6.82,0,0,0-.874.244V233h1.208v-4.183a2.747,2.747,0,0,1,.316-.069,2.393,2.393,0,0,1,.423-.04,2.972,2.972,0,0,1,.613.055,3.687,3.687,0,0,1,.414.1Zm-6.488-.693a1.656,1.656,0,0,1,.545.184.94.94,0,0,1,.359.359,1.144,1.144,0,0,1,.13.57.983.983,0,0,1-.489.962,3.074,3.074,0,0,1-1.4.256H102.1v-2.357c.206-.019.47-.03.789-.03a3.832,3.832,0,0,1,.673.055m-1.746-1.109a6.419,6.419,0,0,0-.974.135V233H102.1v-2.436h.628a6.28,6.28,0,0,0,1.348-.13,2.851,2.851,0,0,0,1-.4,1.782,1.782,0,0,0,.624-.709,2.32,2.32,0,0,0,.215-1.043,1.931,1.931,0,0,0-.8-1.716,4.078,4.078,0,0,0-2.312-.549q-.449,0-.983.034m-2.479-.793-1.208.2v2.506a2.946,2.946,0,0,0-.5-.2,2.26,2.26,0,0,0-.669-.09,2.384,2.384,0,0,0-.987.194,2.014,2.014,0,0,0-.729.555,2.435,2.435,0,0,0-.455.863,3.808,3.808,0,0,0-.154,1.122,3.293,3.293,0,0,0,.184,1.134,2.4,2.4,0,0,0,.53.857,2.294,2.294,0,0,0,.833.545,3.066,3.066,0,0,0,1.109.19,7.039,7.039,0,0,0,1.143-.09,7.126,7.126,0,0,0,.9-.2Zm-3.159,3.9a1.08,1.08,0,0,1,.964-.449,1.671,1.671,0,0,1,.564.094,1.923,1.923,0,0,1,.423.205v3c-.087.019-.2.037-.334.055a4.274,4.274,0,0,1-.5.024,1.291,1.291,0,0,1-1.047-.453,1.9,1.9,0,0,1-.38-1.254,2.143,2.143,0,0,1,.305-1.218M94.19,227.85c-.06-.019-.139-.04-.239-.064s-.2-.043-.31-.06-.212-.03-.319-.04-.2-.015-.28-.015a5.449,5.449,0,0,0-1.163.115,6.806,6.806,0,0,0-.874.244V233h1.207v-4.183a2.776,2.776,0,0,1,.314-.069,2.422,2.422,0,0,1,.425-.04,2.982,2.982,0,0,1,.613.055,3.7,3.7,0,0,1,.415.1ZM88.3,231.634a1.177,1.177,0,0,1-1.866,0,2.082,2.082,0,0,1-.335-1.248,2.037,2.037,0,0,1,.335-1.233,1.184,1.184,0,0,1,1.866,0,2.037,2.037,0,0,1,.335,1.233,2.082,2.082,0,0,1-.335,1.248m1.388-2.372a2.585,2.585,0,0,0-.515-.863,2.236,2.236,0,0,0-.793-.554,2.59,2.59,0,0,0-1.013-.195,2.548,2.548,0,0,0-1.009.195,2.3,2.3,0,0,0-.794.554,2.548,2.548,0,0,0-.519.863,3.259,3.259,0,0,0-.184,1.124,3.3,3.3,0,0,0,.184,1.128,2.565,2.565,0,0,0,.515.868,2.3,2.3,0,0,0,.789.56,2.527,2.527,0,0,0,1.019.2,2.553,2.553,0,0,0,1.022-.2,2.3,2.3,0,0,0,.794-.56,2.483,2.483,0,0,0,.509-.868,3.378,3.378,0,0,0,.179-1.128,3.259,3.259,0,0,0-.184-1.124m-10.167-2.4q-.15.539-.325,1.118c-.115.386-.238.774-.364,1.163s-.254.772-.384,1.149-.257.733-.384,1.073c-.1-.359-.2-.753-.3-1.178s-.2-.868-.295-1.323-.19-.92-.28-1.393-.174-.935-.254-1.389H75.586q.348,1.878.771,3.609t.962,3.31h1.2q.379-1.019.759-2.107t.75-2.3q.725,2.386,1.5,4.4h1.21q.53-1.578.958-3.31t.776-3.609h-1.3c-.079.459-.165.926-.254,1.4s-.181.938-.275,1.393-.185.895-.278,1.318-.19.814-.29,1.173c-.12-.334-.244-.687-.374-1.064s-.259-.759-.389-1.148-.254-.778-.374-1.169-.233-.763-.34-1.122Zm-12.823,3.015a2.042,2.042,0,0,1,.109-.45,1.269,1.269,0,0,1,.224-.389,1.114,1.114,0,0,1,.355-.274,1.071,1.071,0,0,1,.489-.1,1.055,1.055,0,0,1,.464.094.95.95,0,0,1,.329.26,1.135,1.135,0,0,1,.205.389,1.6,1.6,0,0,1,.07.474ZM65.6,231.5a2.334,2.334,0,0,0,.489.859,2.22,2.22,0,0,0,.838.569,3.211,3.211,0,0,0,1.2.2,4.7,4.7,0,0,0,.528-.03c.174-.021.335-.045.485-.075s.283-.064.4-.1a1.938,1.938,0,0,0,.274-.1l-.16-.989a3.351,3.351,0,0,1-.573.171,3.83,3.83,0,0,1-.8.079,1.689,1.689,0,0,1-1.143-.344,1.371,1.371,0,0,1-.444-.972h3.444c.006-.067.011-.142.015-.226s0-.157,0-.224a2.9,2.9,0,0,0-.6-2,2.149,2.149,0,0,0-1.682-.669,2.4,2.4,0,0,0-.9.175,2.242,2.242,0,0,0-.78.519,2.519,2.519,0,0,0-.543.863,3.249,3.249,0,0,0-.205,1.207,3.47,3.47,0,0,0,.16,1.083M61,231.489a2.372,2.372,0,0,0,.483.869,2.216,2.216,0,0,0,.818.569,3.043,3.043,0,0,0,1.164.2,4.249,4.249,0,0,0,.833-.081,2.433,2.433,0,0,0,.6-.18l-.169-1a2.927,2.927,0,0,1-.519.15,3.054,3.054,0,0,1-.609.06,1.4,1.4,0,0,1-1.178-.453,1.972,1.972,0,0,1-.35-1.233,1.913,1.913,0,0,1,.37-1.254,1.324,1.324,0,0,1,1.079-.444,2.624,2.624,0,0,1,.564.06,2.854,2.854,0,0,1,.474.151l.259-.989a3.66,3.66,0,0,0-1.4-.269,2.679,2.679,0,0,0-1.079.21,2.342,2.342,0,0,0-.812.579,2.572,2.572,0,0,0-.515.874,3.2,3.2,0,0,0-.18,1.083,3.555,3.555,0,0,0,.16,1.092M59.637,225.7a.749.749,0,0,0-.519-.2.761.761,0,0,0-.53.2.7.7,0,0,0-.22.549.692.692,0,0,0,.22.539.761.761,0,0,0,.53.2.749.749,0,0,0,.519-.2.692.692,0,0,0,.22-.539.7.7,0,0,0-.22-.549m.09,2.077H58.519V233h1.208ZM55.691,233q.5-1.028,1.026-2.361a29.789,29.789,0,0,0,.958-2.859H56.428c-.073.292-.16.608-.26.943s-.206.672-.316,1.008-.223.663-.337.979-.22.6-.32.853q-.15-.379-.326-.853t-.341-.979c-.109-.337-.214-.672-.31-1.008s-.182-.651-.256-.943H52.673a29.788,29.788,0,0,0,.958,2.859q.525,1.333,1.026,2.361Zm-3.546-5.152c-.06-.019-.141-.04-.239-.064s-.2-.043-.31-.06-.214-.03-.32-.04-.2-.015-.28-.015a5.469,5.469,0,0,0-1.163.115,6.881,6.881,0,0,0-.874.244V233h1.209v-4.183a2.78,2.78,0,0,1,.314-.069,2.394,2.394,0,0,1,.423-.04,3,3,0,0,1,.615.055,3.878,3.878,0,0,1,.414.1Zm-7.778,2.027a2.041,2.041,0,0,1,.109-.45,1.3,1.3,0,0,1,.224-.389,1.148,1.148,0,0,1,.355-.274,1.071,1.071,0,0,1,.489-.1,1.055,1.055,0,0,1,.464.094.95.95,0,0,1,.329.26,1.135,1.135,0,0,1,.205.389,1.6,1.6,0,0,1,.07.474Zm-1.1,1.622a2.334,2.334,0,0,0,.489.859,2.22,2.22,0,0,0,.838.569,3.211,3.211,0,0,0,1.2.2,4.7,4.7,0,0,0,.528-.03c.174-.021.335-.045.485-.075s.283-.064.4-.1a1.864,1.864,0,0,0,.274-.1l-.16-.989a3.351,3.351,0,0,1-.573.171,3.83,3.83,0,0,1-.8.079,1.692,1.692,0,0,1-1.143-.344,1.371,1.371,0,0,1-.444-.972H47.8c.006-.067.011-.142.015-.226s0-.157,0-.224a2.887,2.887,0,0,0-.6-2,2.149,2.149,0,0,0-1.682-.669,2.4,2.4,0,0,0-.9.175,2.256,2.256,0,0,0-.78.519,2.519,2.519,0,0,0-.543.863,3.279,3.279,0,0,0-.205,1.207,3.513,3.513,0,0,0,.16,1.083m-3.913.534a5.522,5.522,0,0,1-.643-.21l-.21,1.008a5.736,5.736,0,0,0,.588.184,4.34,4.34,0,0,0,1.109.115,2.756,2.756,0,0,0,1.582-.384,1.291,1.291,0,0,0,.555-1.133,1.783,1.783,0,0,0-.09-.6,1.2,1.2,0,0,0-.286-.445,1.963,1.963,0,0,0-.494-.348,6.577,6.577,0,0,0-.729-.314,4.3,4.3,0,0,1-.438-.175,1.7,1.7,0,0,1-.29-.169.49.49,0,0,1-.154-.185.548.548,0,0,1-.045-.229.409.409,0,0,1,.229-.384,1.242,1.242,0,0,1,.6-.126,3.111,3.111,0,0,1,.72.075,2.913,2.913,0,0,1,.509.166l.22-.979a4.123,4.123,0,0,0-.628-.165,4.409,4.409,0,0,0-.88-.085,2.266,2.266,0,0,0-1.437.415,1.359,1.359,0,0,0-.53,1.133,1.514,1.514,0,0,0,.115.624,1.288,1.288,0,0,0,.314.434,2.04,2.04,0,0,0,.474.314,6.253,6.253,0,0,0,.6.256,3.531,3.531,0,0,1,.774.368.515.515,0,0,1,.233.43.409.409,0,0,1-.218.395,1.6,1.6,0,0,1-.7.115,3.361,3.361,0,0,1-.854-.1m-1.5.07a2.04,2.04,0,0,1-.4-.085.561.561,0,0,1-.244-.16.6.6,0,0,1-.126-.254,1.715,1.715,0,0,1-.034-.37v-5.979l-1.208.2v6.01a2.636,2.636,0,0,0,.084.693,1.118,1.118,0,0,0,.295.509,1.365,1.365,0,0,0,.564.316,3.3,3.3,0,0,0,.893.12ZM35,232.1a2.04,2.04,0,0,1-.395-.085.561.561,0,0,1-.244-.16.6.6,0,0,1-.126-.254,1.716,1.716,0,0,1-.034-.37v-5.979l-1.208.2v6.01a2.571,2.571,0,0,0,.084.693,1.116,1.116,0,0,0,.295.509,1.356,1.356,0,0,0,.564.316,3.3,3.3,0,0,0,.893.12Zm-3.389-4.323H30.4V232a2.555,2.555,0,0,1-.364.049c-.163.014-.319.021-.465.021a.958.958,0,0,1-.853-.361,2.206,2.206,0,0,1-.244-1.2v-2.735H27.265v2.924a4.047,4.047,0,0,0,.111.974,1.966,1.966,0,0,0,.364.763,1.69,1.69,0,0,0,.679.5,2.714,2.714,0,0,0,1.053.179,7.389,7.389,0,0,0,1.227-.094q.559-.1.91-.186ZM23.421,233v-3.015h2.765v-1.068H23.421v-1.767h3.115v-1.068H22.163V233Z" transform="translate(-22.163 -225.256)" fill="#000000"/>
    </g>
  </g>
</svg>
