<?xml version="1.0" encoding="UTF-8"?>
<svg xmlns="http://www.w3.org/2000/svg" width="1920" height="500" viewBox="0 0 1920 500" fill="none">
  <g clip-path="url(#clip0_2_10)">
    <rect width="1920" height="500" fill="#101B2E"></rect>
    <g opacity="0.3">
      <path opacity="0.4" d="M-114.239 267.214C-105.702 265.506 -97.0866 250.663 -92.0531 245.027C-65.659 215.473 -40.7249 183.82 -13.0809 155.49C35.5225 105.682 102.291 56.9802 172.86 46.6723C188.336 44.4119 205.776 41.8267 221.195 46.144C227.714 47.9694 232.606 52.4844 237.702 56.7089C255.243 71.2492 272.462 86.1629 290.13 100.553C321.892 126.422 352.363 151.01 391.553 164.47C440.651 181.334 492.499 188.785 544.347 185.864C620.497 181.574 702.371 162.132 769.246 124.588C792.938 111.287 814.287 94.3788 837.786 80.7439C861.404 67.0392 885.77 57.8042 911.872 49.9738C931.908 43.9629 950.494 35.8826 969.978 28.4479C991.985 20.0505 1014.7 14.3678 1036.14 4.41287C1065.2 -9.07889 1091.19 -27.5894 1118.15 -44.7137C1171.6 -78.6643 1226.15 -107.892 1283.49 -134.515" stroke="#0E75BC" stroke-width="3" stroke-linecap="round"></path>
      <path opacity="0.4" d="M35.5174 535.825C35.5174 494.067 52.7105 444.054 89.134 421.46C122.393 400.83 162.354 395.231 200.593 393.199C250.041 390.572 298.885 395.052 347.048 406.537C443.307 429.492 532.185 474.056 626.885 501.489C709.222 525.341 790.421 513.868 861.821 464.908C883.807 449.832 899.866 427.17 920.191 409.971C939.345 393.764 960.577 378.955 980.675 363.882C1056.73 306.838 1137.79 257.278 1221.42 212.276C1247.46 198.265 1269.75 180.643 1293.26 162.886C1325.62 138.447 1359.91 116.934 1391.91 91.9691C1421.1 69.2031 1443.85 45.2536 1465.07 14.5816C1492.36 -24.8636 1505.23 -65.437 1518.82 -110.744" stroke="#0E75BC" stroke-width="3" stroke-linecap="round"></path>
      <path opacity="0.4" d="M1221.69 673.696C1194.54 676.799 1156.52 679.941 1153.41 643.19C1148.15 580.968 1193.17 514.26 1246.25 485.246C1277.81 467.994 1308.68 471.044 1343.05 469.134C1383.98 466.86 1407.62 442.557 1431 411.82C1447.23 390.493 1461.6 367.947 1476.83 345.922C1495.49 318.932 1517.77 296.827 1541.27 274.081C1580.42 236.197 1611.91 189.815 1636.62 141.228C1659.7 95.8288 1679.32 49.1607 1705.03 4.94115C1743.67 -61.5188 1801.28 -108.61 1858.75 -158.286" stroke="#0E75BC" stroke-width="3" stroke-linecap="round"></path>
      <path opacity="0.8" d="M1777.93 676.073C1769.94 674.933 1763.17 670.002 1757.06 664.98C1732.94 645.142 1713.93 619.772 1697.76 593.271C1668.96 546.06 1658.81 491.082 1662.5 436.251C1667.86 356.788 1739.47 324.413 1801.56 292.173C1821.89 281.619 1841.16 267.959 1860.6 255.856C1878.77 244.535 1897.71 233.63 1908.8 214.785C1951.73 141.792 1904.67 66.1387 1873.01 -1.39777" stroke="#0E75BC" stroke-width="3" stroke-linecap="round"></path>
      <path opacity="0.8" d="M-66.6975 357.543C-54.0978 340.533 -32.7858 327.147 -14.7977 316.868C36.114 287.776 95.2 276.755 152.259 266.685C201.243 258.041 250.353 252.077 300.167 253.083C327.162 253.628 352.223 259.797 378.347 265.893C438.982 280.041 501.175 288.441 563.232 293.362C627.979 298.496 693.861 298.084 757.361 283.325C806.378 271.932 856.423 266.599 905.533 255.856C929.475 250.619 947.816 241.356 968.658 228.388C1008.11 203.839 1049.08 185.07 1091.21 165.791C1202.34 114.934 1297.37 36.5635 1391.25 -40.7518C1422.7 -66.6469 1452.43 -96.0721 1470.09 -133.458C1485.65 -166.389 1486.69 -203.423 1487.92 -239.107" stroke="#0E75BC" stroke-width="3" stroke-linecap="round"></path>
      <path opacity="0.7" d="M287.489 -113.121C294.878 -104.09 294.649 -89.8965 296.997 -79.0494C301.003 -60.546 316.024 -45.174 327.9 -31.2435C345.015 -11.1653 361.291 6.65113 387.063 15.2419C416.707 25.1232 448.621 30.8708 479.109 37.8242C504.98 43.7245 529.461 48.855 555.44 40.8616C591.971 29.6212 626.846 9.06016 655.674 -15.9245C771.079 -115.942 914.031 -168.974 1041.03 -250.992" stroke="#0E75BC" stroke-width="3" stroke-linecap="round"></path>
      <path opacity="0.7" d="M924.549 583.367C934.136 573.78 938.145 561.749 945.019 550.219C957.206 529.777 974.353 507.604 991.108 490.66C1032.07 449.24 1086.17 433.282 1136.11 406.141C1150.03 398.578 1162.35 388.736 1176.79 382.106C1204.4 369.428 1236.01 363.525 1262.1 348.035C1282.92 335.671 1304.08 320.745 1320.47 302.87C1334.58 287.469 1351.56 270.627 1368.54 258.497C1387.95 244.63 1409.08 231.046 1426.64 214.917C1449.79 193.665 1456.41 165.454 1471.41 138.983C1488.73 108.431 1505.51 77.4678 1523.31 47.2005C1541.58 16.1451 1554.73 -17.7986 1575.61 -47.3549C1594.15 -73.6001 1622.71 -91.6735 1644.15 -115.498C1668.62 -142.689 1688.51 -171.756 1715.59 -196.98C1741.99 -221.57 1769.79 -247.192 1782.68 -281.63C1794.02 -311.914 1802.08 -343.109 1808.83 -374.601" stroke="#0E75BC" stroke-width="3" stroke-linecap="round"></path>
    </g>
  </g>
  <defs>
    <clipPath id="clip0_2_10">
      <rect width="1920" height="500" fill="white"></rect>
    </clipPath>
  </defs>
</svg>
