<?xml version="1.0" encoding="UTF-8"?>
<svg xmlns="http://www.w3.org/2000/svg" id="Layer_1" viewBox="0 0 110.24 107.33">
  <defs>
    <style>.cls-1{fill:#33b5b5;}</style>
  </defs>
  <path class="cls-1" d="m110.24,107.33h-19.49V42.05h19.49v65.28Zm-17.49-2h15.49v-61.28h-15.49v61.28Z"></path>
  <path class="cls-1" d="m79.99,107.33h-19.49v-54.77h19.49v54.77Zm-17.49-2h15.49v-50.77h-15.49v50.77Z"></path>
  <path class="cls-1" d="m49.74,107.33h-19.49v-42.8h19.49v42.8Zm-17.49-2h15.49v-38.8h-15.49v38.8Z"></path>
  <path class="cls-1" d="m19.49,107.33H0v-31.43h19.49v31.43Zm-17.49-2h15.49v-27.43H2v27.43Z"></path>
  <polygon class="cls-1" points="10.45 61.82 9.04 60.4 24.96 44.69 50.07 44.69 87.11 19.82 88.23 21.48 50.68 46.69 25.78 46.69 10.45 61.82"></polygon>
  <polygon class="cls-1" points="87.63 30.37 85.64 30.16 86.56 21.35 76.79 21.35 76.79 19.35 88.78 19.35 87.63 30.37"></polygon>
  <path class="cls-1" d="m44.36,34.02c-9.38,0-17.01-7.63-17.01-17.01S34.97,0,44.36,0s17.01,7.63,17.01,17.01-7.63,17.01-17.01,17.01Zm0-32.02c-8.28,0-15.01,6.73-15.01,15.01s6.73,15.01,15.01,15.01,15.01-6.73,15.01-15.01-6.73-15.01-15.01-15.01Z"></path>
  <path class="cls-1" d="m41.1,20.63c.67.41,1.65.76,2.68.76,1.53,0,2.43-.81,2.43-1.98,0-1.08-.62-1.7-2.19-2.31-1.89-.67-3.06-1.65-3.06-3.29,0-1.81,1.5-3.15,3.75-3.15,1.19,0,2.05.27,2.56.57l-.41,1.22c-.38-.21-1.15-.55-2.2-.55-1.58,0-2.19.95-2.19,1.74,0,1.08.71,1.62,2.31,2.24,1.96.76,2.96,1.7,2.96,3.41,0,1.79-1.33,3.34-4.06,3.34-1.12,0-2.34-.33-2.96-.74l.38-1.26Z"></path>
  <rect class="cls-1" x="43.6" y="7.49" width="2" height="3.4"></rect>
  <rect class="cls-1" x="43.6" y="21.64" width="2" height="3.4"></rect>
</svg>
