<?xml version="1.0" encoding="UTF-8"?>
<svg xmlns="http://www.w3.org/2000/svg" xmlns:xlink="http://www.w3.org/1999/xlink" id="Layer_1" viewBox="0 0 159.02 102.27">
  <defs>
    <style>.cls-1{fill:none;}.cls-2{fill:#2275a4;}</style>
    <clipPath id="clippath">
      <rect class="cls-1" x="-1009.25" y="224.06" width="3409.54" height="795.1"></rect>
    </clipPath>
  </defs>
  <path class="cls-2" d="m109.69,99.61h-11.12c-3.11,0-5.63-2.53-5.63-5.63v-25.3c0-3.11,2.53-5.63,5.63-5.63h11.12c3.11,0,5.63,2.53,5.63,5.63v25.3c0,3.11-2.53,5.63-5.63,5.63Zm-11.12-34.12c-1.75,0-3.18,1.43-3.18,3.18v25.3c0,1.75,1.43,3.18,3.18,3.18h11.12c1.75,0,3.18-1.43,3.18-3.18v-25.3c0-1.75-1.43-3.18-3.18-3.18h-11.12Z"></path>
  <rect class="cls-2" x="102.9" y="19.65" width="2.46" height="44.62"></rect>
  <path class="cls-2" d="m112.23,20.88h-16.21l2.8-19.78h10.6l2.8,19.78Zm-13.38-2.46h10.55l-2.11-14.87h-6.34l-2.11,14.87Z"></path>
  <path class="cls-2" d="m149.77,100.4v-12.95l-7.49-3.5-7.49,3.5v12.95l-1.92-1.31c-4.59-3.13-7.33-8.3-7.33-13.84,0-6.13,3.44-11.83,8.82-14.73V29.88c-5.38-2.9-8.82-8.6-8.82-14.73,0-5.54,2.74-10.71,7.33-13.84L134.78,0v12.95l7.49,3.5,7.49-3.5V0l1.92,1.31c4.59,3.13,7.33,8.3,7.33,13.84,0,6.13-3.44,11.83-8.82,14.73v40.64c5.38,2.9,8.82,8.6,8.82,14.73,0,5.54-2.74,10.71-7.33,13.84l-1.92,1.31ZM132.33,4.9c-2.75,2.67-4.33,6.35-4.33,10.25,0,5.45,3.19,10.51,8.13,12.87l.7.33v43.69l-.7.33c-4.94,2.37-8.13,7.42-8.13,12.87,0,3.9,1.59,7.58,4.33,10.25v-9.61l9.95-4.64,9.95,4.64v9.61c2.75-2.67,4.33-6.35,4.33-10.25,0-5.45-3.19-10.51-8.13-12.87l-.7-.33V28.36l.7-.33c4.94-2.37,8.13-7.42,8.13-12.87,0-3.9-1.59-7.58-4.33-10.25v9.61l-9.95,4.64-9.95-4.64V4.9Z"></path>
  <polygon class="cls-2" points="79.29 102.27 0 102.27 0 10.9 23.36 10.9 23.36 13.36 2.46 13.36 2.46 99.82 76.84 99.82 76.84 13.36 54.84 13.36 54.84 10.9 79.29 10.9 79.29 102.27"></polygon>
  <path class="cls-2" d="m56.07,15.76H23.22V1.09h32.85v14.66Zm-30.39-2.46h27.94V3.55h-27.94v9.75Z"></path>
  <rect class="cls-2" x="28.36" y="33.98" width="38.97" height="2.46"></rect>
  <rect class="cls-2" x="28.36" y="50.87" width="38.97" height="2.46"></rect>
  <rect class="cls-2" x="28.36" y="67.76" width="38.97" height="2.46"></rect>
  <rect class="cls-2" x="28.36" y="84.64" width="38.97" height="2.46"></rect>
  <rect class="cls-2" x="12.52" y="33.98" width="8.11" height="2.46"></rect>
  <rect class="cls-2" x="12.52" y="50.87" width="8.11" height="2.46"></rect>
  <rect class="cls-2" x="12.52" y="67.76" width="8.11" height="2.46"></rect>
  <rect class="cls-2" x="12.52" y="84.64" width="8.11" height="2.46"></rect>
</svg>
