<?xml version="1.0" encoding="UTF-8"?>
<svg xmlns="http://www.w3.org/2000/svg" xmlns:xlink="http://www.w3.org/1999/xlink" id="Layer_1" viewBox="0 0 104.03 104.14">
  <defs>
    <style>.cls-1{opacity:.45;}.cls-1,.cls-2,.cls-3,.cls-4{fill:none;}.cls-3{opacity:.66;}.cls-5{fill:#2275a4;}.cls-4{clip-path:url(#clippath);}</style>
    <clipPath id="clippath">
      <rect class="cls-2" x="-524.3" y="225.93" width="3409.54" height="795.1"></rect>
    </clipPath>
  </defs>
  <g class="cls-1">
    <g class="cls-4">
      <g class="cls-3">
        <path class="cls-5" d="m-502.07,116.91c-25.81,12.46-55.88,25.33-71.03,50.92-3.62,6.31-5.22,13.78-6.59,20.87-5.61,33.77,17.79,53.71,46.6,65.16,32.78,12.94,68.13,17.58,102.91,21.91,8.66,1.15,19.17,2.52,27.7,4.17,36.71,6.21,71.82,19.62,108.21,26.88,36.14,6.97,73.61,7.34,110.04,2.38,0,0,5.35-1.05,5.35-1.05,2.6-.54,5.3-1.46,7.89-2.09,2.41-.89,5.3-1.76,7.69-2.73,13.46-5.35,25.88-13.66,36.37-23.62,10.73-10.04,19.84-21.71,28.29-33.72,12.91-18.13,23.85-38.09,39.15-54.62,5.23-5.54,11.36-10.53,18.11-14.06,19.32-10.75,37.88-23.19,54.79-37.47,8.27-7.17,16.43-14.73,22.33-23.93,3.48-5.38,6.41-13.15.47-17.64-2.56-2.01-6-3.16-9.46-3.94-29.01-6.01-58.44-10.48-87.95-13.77-59.07-6.53-118.65-8.41-178.05-6.43-81.25,3.42-164.11,10.42-242.1,34.64-6.89,2.33-14.12,5.05-20.7,8.14h0Zm-.41-.86c6.64-3.07,13.87-5.79,20.84-8.07,21.22-6.96,43.09-11.71,64.99-15.94,58.49-10.99,117.89-16.74,177.32-19.24,89.21-3.35,179.04.88,266.81,18.01,15.5,3.09,20.28,13.16,11.51,27.1-6.07,9.67-14.47,17.58-22.93,25.04-17.06,14.64-35.67,27.32-55.22,38.41-6.41,3.42-11.93,8.03-16.87,13.3-15.01,16.37-25.67,36-38.54,54.19-8.57,12.27-17.92,24.3-28.87,34.59-10.94,10.44-23.87,19.13-37.94,24.78-3.43,1.29-7.25,2.72-10.82,3.64-5.26,1.52-11.31,2.8-16.75,3.44-35.3,3.89-71.41,3.44-106.32-3.53-34.74-6.97-67.89-19.63-102.56-26.6-8.53-1.63-18.7-3.48-27.35-4.61-36.85-5.05-74.36-9.85-109.02-24.04-29.51-12.08-53.52-33.35-47.42-68.13,1.53-7.28,3.18-14.93,6.98-21.41,3.74-6.59,8.81-12.27,14.35-17.3,16.82-14.95,37.61-24.3,57.79-33.62h0Z"></path>
      </g>
    </g>
  </g>
  <polygon class="cls-5" points="2.45 29.39 0 29.39 0 0 29.39 0 29.39 2.45 2.45 2.45 2.45 29.39"></polygon>
  <polygon class="cls-5" points="29.39 104.14 0 104.14 0 74.75 2.45 74.75 2.45 101.69 29.39 101.69 29.39 104.14"></polygon>
  <polygon class="cls-5" points="104.03 104.14 74.64 104.14 74.64 101.69 101.58 101.69 101.58 74.75 104.03 74.75 104.03 104.14"></polygon>
  <polygon class="cls-5" points="104.03 29.39 101.58 29.39 101.58 2.45 74.64 2.45 74.64 0 104.03 0 104.03 29.39"></polygon>
  <path class="cls-5" d="m52.02,73.99c-12.08,0-21.92-9.83-21.92-21.92s9.83-21.92,21.92-21.92,21.92,9.83,21.92,21.92-9.83,21.92-21.92,21.92Zm0-41.38c-10.73,0-19.46,8.73-19.46,19.46s8.73,19.46,19.46,19.46,19.46-8.73,19.46-19.46-8.73-19.46-19.46-19.46Z"></path>
  <path class="cls-5" d="m52.02,88.97c-20.35,0-36.9-16.55-36.9-36.9S31.67,15.17,52.02,15.17s36.9,16.55,36.9,36.9-16.55,36.9-36.9,36.9Zm0-71.34c-18.99,0-34.44,15.45-34.44,34.44s15.45,34.44,34.44,34.44,34.44-15.45,34.44-34.44-15.45-34.44-34.44-34.44Z"></path>
  <rect class="cls-5" x="51.34" y="1.23" width="2.46" height="30.16"></rect>
  <rect class="cls-5" x="50.79" y="72.76" width="2.46" height="30.16"></rect>
  <rect class="cls-5" x="72.7" y="50.84" width="30.1" height="2.46"></rect>
  <rect class="cls-5" x="1.23" y="50.84" width="30.1" height="2.46"></rect>
  <polygon class="cls-5" points="51.41 61.24 43.9 52.89 45.73 51.25 51.16 57.3 59.76 44.97 61.77 46.38 51.41 61.24"></polygon>
</svg>
